<svg width="71" height="65" viewBox="0 0 71 65" fill="none" xmlns="http://www.w3.org/2000/svg">
<path d="M47.0544 0.711628C46.8866 0.705133 46.7735 0.705794 46.7419 0.742878C46.6931 0.800268 45.9546 3.06386 45.1169 5.74288C44.2793 8.42189 42.2055 15.0478 40.4919 20.4929C38.7784 25.9379 37.4145 30.4974 37.4607 30.6179C37.5335 30.8075 37.8991 30.8366 40.0857 30.8366C42.1402 30.8366 42.6371 30.8914 42.7732 31.0554C42.9096 31.2198 42.5277 32.2551 40.7107 36.6491C39.4849 39.6134 38.3506 42.2909 38.2107 42.6179C38.0708 42.9449 38.0409 43.2057 38.1169 43.1804C38.3575 43.1002 53.4607 25.874 53.4607 25.6804C53.4607 25.5306 52.8478 25.4929 50.2419 25.4929C48.2274 25.4929 47.0143 25.4546 46.9607 25.3679C46.9137 25.2918 47.3471 24.3736 47.9294 23.3366C48.5117 22.2996 49.9074 19.7804 51.0544 17.7429C55.9933 8.96962 58.2977 4.89199 58.3669 4.71163C58.4482 4.49991 56.2437 3.31409 54.3357 2.55538C52.3803 1.77783 48.2294 0.757093 47.0544 0.711628ZM38.7419 4.11788L38.2419 4.18038C37.663 4.26996 34.6578 5.08518 34.0857 5.30538L33.6794 5.46163L33.7419 8.49288L33.7732 11.5241L33.3669 11.7429C33.1437 11.8551 32.5366 12.1929 32.0232 12.4929L31.0857 13.0241L28.5857 11.5554C27.2125 10.745 26.0507 10.0554 25.9919 10.0241C25.8378 9.94217 24.1647 11.4472 23.1169 12.6179L22.2107 13.6179L23.7732 16.2116L25.3357 18.8054L24.9919 19.3679C24.8033 19.6754 24.4398 20.2986 24.2107 20.7429L23.8044 21.5554L20.8044 21.4929L17.7732 21.4304L17.4919 22.1179C17.2386 22.7817 16.6652 25.043 16.4919 26.0241L16.3982 26.5241L19.0232 27.9616L21.6482 29.3991V30.9929V32.5554L19.0232 33.9929L16.3982 35.4304L16.4919 35.9304C16.6339 36.7342 17.2156 38.9738 17.4919 39.7741L17.7419 40.5241L20.7732 40.4616L23.8044 40.3991L24.2107 41.2116C24.4398 41.6559 24.8033 42.2791 24.9919 42.5866L25.3357 43.1491L23.7732 45.7429L22.2107 48.3366L23.3044 49.5241C24.295 50.6079 25.7593 51.9616 25.9294 51.9616C25.9657 51.9616 27.1498 51.295 28.5544 50.4616L31.1169 48.9304L32.0232 49.4929C32.5323 49.7904 33.1437 50.1306 33.3669 50.2429L33.7732 50.4304L33.7419 53.4616L33.6794 56.4929L34.0857 56.6491C34.6955 56.8825 36.6964 57.4369 37.6794 57.6491C38.17 57.755 38.6071 57.8619 38.6482 57.8679C38.6893 57.8739 39.3884 56.7204 40.1794 55.3054L41.6169 52.7116H43.2419H44.8669L46.2732 55.2741L47.6794 57.8054L48.1482 57.7429C48.6787 57.6889 51.3721 57.0291 52.1794 56.7429L52.7107 56.5241V53.4929V50.4304L53.1169 50.2429C53.3433 50.1286 53.9504 49.791 54.4607 49.4929L55.3982 48.9304L57.9294 50.4616C59.3173 51.2956 60.4976 51.9616 60.5857 51.9616C60.8041 51.9616 64.1794 48.5595 64.1794 48.3366C64.1794 48.2388 63.506 47.0262 62.6794 45.6491L61.1794 43.1491L61.5232 42.5866C61.7118 42.2791 62.0441 41.6559 62.2732 41.2116L62.6794 40.3991L65.7107 40.4616L68.7419 40.5241L68.9919 39.7741C69.2702 38.9681 69.8536 36.724 69.9919 35.9304L70.0857 35.4304L67.4607 33.9929L64.8669 32.5554V30.9929V29.3991L67.4607 27.9616C68.8945 27.1722 70.0864 26.476 70.0857 26.3991C70.0827 26.0598 69.3864 23.2715 69.0857 22.3991L68.7419 21.4304L65.7107 21.4929L62.6794 21.5554L62.2732 20.7429C62.044 20.2985 61.7119 19.6754 61.5232 19.3679L61.1794 18.8054L62.7107 16.2116L64.2732 13.6179L63.1794 12.4304C61.9901 11.1291 60.665 9.95103 60.4919 10.0241C60.4327 10.0492 59.7392 10.4151 58.9607 10.8679L57.5544 11.7116L55.5232 14.7116L53.4919 17.7116L54.8044 19.0241C57.5346 21.732 59.1765 24.8947 59.7107 28.5241C59.9606 30.2223 59.9658 31.1352 59.7732 32.8366C58.9468 40.1364 53.4887 45.9873 46.2107 47.3679C44.766 47.642 41.8042 47.6349 40.2732 47.3679C35.4887 46.5335 31.082 43.3828 28.6794 39.0866C26.4417 35.0852 25.9784 30.084 27.4294 25.7116C28.8339 21.4798 31.9048 17.9771 35.9607 16.0241C37.2612 15.3979 39.4856 14.6491 40.0544 14.6491C40.4019 14.6491 40.4688 14.4254 41.1169 11.7116L41.6794 9.39913L40.2107 6.74288L38.7419 4.11788ZM10.1794 41.2116L9.67944 42.7741L9.17944 44.3366L8.27319 44.7116L7.36694 45.0866L5.92944 44.4304C5.14002 44.058 4.46059 43.7429 4.39819 43.7429C4.33583 43.7429 3.88654 44.155 3.39819 44.6491L2.49194 45.5241L3.21069 46.9304C3.60922 47.7003 3.93144 48.4114 3.92944 48.4929C3.92711 48.5744 3.79618 48.9898 3.61694 49.4304L3.27319 50.2429L1.71069 50.8054L0.148193 51.3679L0.116943 52.6804L0.0856934 53.9616L1.67944 54.4929L3.24194 54.9929L3.52319 55.6491C4.01254 56.7495 3.9992 56.8558 3.24194 58.3991L2.55444 59.8366L3.46069 60.7741L4.39819 61.6804L5.92944 60.9304L7.42944 60.1804L8.33569 60.5866L9.21069 60.9929L9.74194 62.5241L10.2732 64.0554H11.6169H12.9294L13.3982 62.4929L13.8982 60.9616L14.7732 60.5866L15.6794 60.1804L17.2419 60.8991L18.7732 61.6179L19.6794 60.7116L20.5857 59.8054L19.8669 58.3054L19.1169 56.8054L19.4294 55.9616C19.6009 55.5032 19.8122 55.0893 19.8982 55.0241C19.9842 54.9589 20.7093 54.6537 21.5232 54.3679L23.0232 53.8679L22.9919 52.5554L22.9294 51.2429L21.3982 50.7429L19.8357 50.2429L19.4919 49.4304C19.3106 48.9836 19.1794 48.5541 19.1794 48.4616C19.1794 48.3691 19.4662 47.6591 19.8357 46.8679L20.5232 45.4304L19.5857 44.4929L18.6482 43.5554L17.1794 44.3366L15.7419 45.0866L14.8357 44.7116L13.9294 44.3679L13.3669 42.7741L12.7732 41.2116H11.4919H10.1794ZM11.5544 49.0554C14.8865 49.0572 16.432 53.0835 13.9607 55.3054C13.5953 55.6339 13.0414 55.9657 12.7419 56.0554C10.7667 56.6472 8.67022 55.606 8.11694 53.7429C7.83361 52.7888 7.84602 52.259 8.17944 51.3679C8.71927 49.925 10.0137 49.0546 11.5544 49.0554Z" fill="#00BCF2"/>
</svg>
