<svg width="1964" height="2501" viewBox="0 0 1964 2501" fill="none" xmlns="http://www.w3.org/2000/svg">
<g clip-path="url(#clip0_104_26)">
<path d="M880.945 0.508545H1289.48V1872.96C1080.22 1912.54 926.17 1928.11 759.492 1928.11C260.522 1927.59 0.784668 1704.68 0.784668 1276.55C0.784668 864.052 276.295 596.34 703.232 596.34C769.483 596.34 819.954 601.555 880.945 617.174V0.508545ZM895.261 954.611C847.413 938.984 807.984 933.777 757.506 933.777C550.877 933.777 431.525 1059.82 431.525 1280.7C431.525 1495.75 545.624 1614.5 754.883 1614.5C800.094 1614.5 836.9 1611.96 895.261 1604.14V954.611V954.611Z" fill="#2BA977"/>
<path d="M1957.55 646.612V1584.12C1957.55 1906.98 1933.37 2062.24 1862.38 2196.1C1796.13 2324.79 1708.86 2405.94 1528.51 2495.57L1149.42 2316.93C1329.77 2233.12 1417.04 2159.06 1472.78 2046.05C1531.13 1930.47 1549.54 1796.62 1549.54 1444.53V646.619H1957.55V646.612ZM1508.37 0.508545H1916.9V415.614H1508.37V0.508545Z" fill="#2BA977"/>
</g>
<defs>
<clipPath id="clip0_104_26">
<rect width="1963" height="2500" fill="white" transform="translate(0.784668 0.508545)"/>
</clipPath>
</defs>
</svg>
