<svg width="36" height="48" viewBox="0 0 36 48" fill="none" xmlns="http://www.w3.org/2000/svg">
<path d="M11.6374 37C4.80069 39.0802 15.7958 43.3778 24.5 39.3155C23.0743 38.7118 22.0535 38.0148 22.0535 38.0148C18.1707 38.815 16.37 38.8778 12.8466 38.4401C9.93824 38.076 11.6374 37 11.6374 37ZM10.1578 33C1.79315 35.7769 14.8118 38.926 26.5 35.5073C25.2576 35.0692 24.4675 34.268 24.4675 34.268C18.7552 35.3682 15.454 35.3329 11.2738 34.9016C8.04124 34.5671 10.1578 33 10.1578 33ZM33.5546 41.3181C33.5546 41.3181 34.9411 42.1945 32.0276 42.8725C26.4874 44.16 8.96894 44.5488 4.10238 42.9238C2.35298 42.34 5.63361 41.5298 6.66557 41.3598C7.7418 41.1808 8.35683 41.2141 8.35683 41.2141C6.41131 40.1627 -4.21819 43.2786 2.95757 44.1709C22.5269 46.6055 38.6306 43.0746 33.5546 41.3181ZM12.8887 27.0074C12.8887 27.0074 4.20606 28.9694 9.81394 29.6819C12.1818 29.9835 16.9019 29.9152 21.2987 29.5648C24.8919 29.2764 28.5 28.6633 28.5 28.6633C28.5 28.6633 27.233 29.1795 26.3163 29.775C17.4993 31.9811 0.466398 30.9548 5.36994 28.6982C9.51688 26.7911 12.8887 27.0074 12.8887 27.0074ZM28.6661 34.7503C28.6279 34.8683 28.5 35.0001 28.5 35C39.5366 31.6532 35.4791 23.2029 30.2031 25.3426C29.7397 25.5324 29.497 25.9709 29.497 25.9709C29.497 25.9709 29.7884 25.8349 30.4421 25.6779C33.109 25.0366 36.9298 29.7969 28.6661 34.7503ZM12.5156 47.8673C21.452 48.3539 35.175 47.5973 35.5 44C35.5 44 34.8753 45.3637 28.1145 46.4467C20.487 47.6678 11.0796 47.5253 5.5 46.7427C5.50013 46.7425 6.64222 47.5469 12.5156 47.8673Z" fill="#5382A1"/>
<path d="M21.4833 23.7164C14.1535 14.2817 29.5 10 29.5 10C19.7231 16.3342 21.5291 18.1714 23.8841 21.8689C26.4056 25.8338 20.9152 29 20.9152 29C20.9152 29 23.6456 26.4974 21.4833 23.7164ZM23.1558 0C23.1558 0 28.395 5.11546 18.1866 12.9816C10.0006 19.2916 16.32 22.8894 18.1832 27C13.4049 22.792 9.89823 19.0877 12.2508 15.6401C15.7038 10.5793 25.2697 8.1256 23.1558 0Z" fill="#E76F00"/>
</svg>
