<svg width="2501" height="2283" viewBox="0 0 2501 2283" fill="none" xmlns="http://www.w3.org/2000/svg">
<g clip-path="url(#clip0_104_123)">
<path d="M322.701 1471.32C324.836 1476.14 327.25 1480.6 329.849 1485.06C331.056 1487.66 332.727 1490.35 334.212 1492.76C336.626 1497.59 339.225 1502.23 341.731 1506.87L356.306 1531.38C358.998 1535.93 361.597 1540.38 364.661 1544.84C369.767 1553.57 375.801 1562.11 381.092 1570.83C383.506 1574.45 385.734 1578.07 388.426 1581.69C398.637 1597.57 407.921 1610.75 417.854 1623.56C424.909 1633.12 431.964 1642.5 439.576 1651.88C442.083 1655.4 444.868 1658.93 447.467 1662.46L467.983 1687.34C470.49 1690.22 472.996 1693.56 475.688 1696.53C484.786 1707.48 494.44 1718.07 504.095 1728.83C504.095 1729.02 504.373 1729.2 504.559 1729.48C516.534 1744.52 529.438 1757.89 543.548 1769.77L543.92 1770.14C551.346 1777.76 558.773 1785.28 566.664 1792.7L576.04 1801.71C586.344 1811.36 596.648 1820.92 607.51 1830.21C607.695 1830.21 607.788 1830.39 607.974 1830.48L613.265 1835.13C622.734 1843.39 632.296 1851.56 642.043 1859.17L653.647 1868.92C661.538 1875.23 669.707 1881.17 677.784 1887.39L690.409 1897.05C699.042 1903.54 708.233 1909.86 717.052 1916.17C720.301 1918.49 723.55 1920.81 726.892 1922.95L729.584 1925.08L755.67 1942.16L766.81 1949.59C780.456 1958.31 794.01 1966.48 807.563 1974.65C811.462 1976.6 815.361 1978.74 818.981 1980.97C829.007 1986.72 839.404 1992.57 849.523 1997.86C855.093 2001.02 860.849 2003.71 866.604 2006.59C873.567 2010.49 880.808 2014.29 888.234 2018.19C890.277 2018.84 891.948 2019.49 893.619 2020.42L893.99 2020.05C897.053 2021.44 899.931 2022.93 902.902 2024.41C914.042 2029.98 925.646 2035.27 937.714 2040.47C939.942 2041.4 942.355 2042.33 944.769 2043.63C958.137 2049.48 971.505 2055.05 985.337 2060.43C988.493 2061.36 991.835 2062.94 995.084 2064.14C1007.62 2068.88 1020.52 2073.7 1033.33 2078.25L1037.97 2079.92C1052.18 2084.75 1066.19 2089.39 1080.68 2093.76C1084.02 2094.68 1087.45 2095.89 1090.98 2096.82C1105.74 2101.28 1120.04 2106.57 1134.98 2109.35C2088.65 2282.3 2365.75 1538.81 2365.75 1538.81C2132.93 1840.51 1719.73 1920.07 1328.44 1831.51C1313.96 1828.16 1299.48 1823.52 1284.81 1819.25C1264.11 1813.39 1243.59 1806.92 1223.27 1799.85L1232.08 1802.54L1226.33 1800.31C1213.7 1796.04 1201.54 1791.31 1189.2 1786.58C1186.17 1785.29 1183.11 1784.12 1180.01 1783.05L1178.98 1782.77C1165.34 1777.29 1152.06 1771.72 1138.88 1765.87C1136 1764.95 1133.59 1763.65 1130.71 1762.53C1115.1 1755.73 1099.62 1748.61 1084.3 1741.18L1097.11 1746.84C1093.76 1745.36 1090.48 1743.75 1087.27 1742.02C1078.54 1737.93 1069.81 1733.29 1061.27 1728.93C1054.77 1725.84 1048.36 1722.56 1042.06 1719.09L1043.91 1720.01C1033.42 1714.44 1022.93 1708.41 1012.35 1702.75C1009.19 1700.52 1005.57 1698.66 1001.95 1696.62C986.223 1687.48 970.686 1678.01 955.352 1668.21L961.2 1671.74C957.271 1669.31 953.431 1666.74 949.689 1664.04L950.246 1664.41C940.269 1658.28 930.485 1651.84 920.911 1645.1C917.755 1643.06 914.877 1640.83 911.628 1638.6C901.626 1631.77 891.783 1624.72 882.107 1617.43L884.335 1619.01C880.436 1615.86 876.259 1612.89 872.081 1609.82C863.912 1603.42 855.65 1597.29 847.481 1590.61L836.527 1581.88C824.852 1572.59 813.4 1563.03 802.179 1553.2L802.086 1553.1L769.873 1523.86L760.59 1515.13C752.978 1507.43 745.18 1500.09 737.382 1492.48L728.377 1483.2C718.766 1473.68 709.387 1463.93 700.249 1453.96L699.692 1453.31L698.114 1452.01C688.285 1441.21 678.598 1430.29 669.058 1419.24C666.551 1416.36 664.23 1413.3 661.631 1410.23L640.558 1384.7C631.059 1372.77 621.774 1360.67 612.708 1348.41L608.995 1343.21C391.954 1048.37 313.418 641.49 487.107 307.666L333.748 501.592C136.48 783.709 160.894 1150.58 311.747 1450.15C315.181 1457.49 318.988 1464.35 322.701 1471.32V1471.32Z" fill="#1266A9"/>
<path d="M987.101 1064.9L986.08 1063.41L985.244 1062.3L987.101 1064.9Z" fill="black"/>
<path d="M1090.89 1186.69L1099.24 1195.05C1109.82 1205.26 1120.69 1215.19 1131.73 1225.13L1133.13 1226.33C1144.27 1236.17 1156.8 1246.48 1169.7 1256.5L1171.65 1257.99C1174.81 1260.12 1177.5 1262.63 1180.56 1264.77C1193.56 1274.79 1206.65 1284.35 1220.29 1293.91L1221.69 1294.75C1227.44 1298.93 1233.57 1302.73 1240.07 1306.82C1242.67 1308.49 1245.64 1310.72 1248.42 1312.39C1258.26 1318.7 1267.92 1324.55 1277.85 1330.58C1279.43 1331.23 1280.82 1332.07 1282.31 1332.72C1290.66 1337.82 1299.76 1342.74 1308.49 1347.2C1311.55 1349.06 1314.52 1350.45 1317.68 1352.21C1323.9 1355.28 1330.02 1358.53 1335.96 1361.68L1338.93 1362.98C1351.47 1369.11 1364.28 1374.86 1376.81 1380.53C1379.97 1381.73 1382.66 1382.76 1385.35 1384.05C1395.65 1388.51 1406.14 1392.78 1416.45 1396.68C1421.09 1398.26 1425.45 1400.11 1429.82 1401.51C1439.29 1405.03 1449.22 1408.28 1458.6 1411.53L1471.59 1415.71C1485.15 1419.89 1498.88 1425.37 1513.27 1427.59C2249.71 1548.83 2420.15 984.691 2420.15 984.691C2266.7 1204.42 1969.73 1309.14 1653.26 1227.35C1637.47 1223.37 1621.8 1218.88 1606.29 1213.89L1611.58 1215.38C1607.13 1214.17 1603.23 1212.78 1598.96 1211.48C1589.3 1208.14 1579.37 1204.89 1569.99 1201.45L1556.63 1196.44C1546.23 1192.26 1535.65 1188.36 1525.53 1183.91C1522.37 1182.52 1519.49 1181.59 1517.08 1180.2C1504.08 1174.35 1490.99 1168.59 1478.28 1162.46L1459.15 1152.53L1448.11 1146.96C1439.56 1142.51 1431.67 1137.86 1423.5 1133.13C1421.42 1132.15 1419.41 1131.03 1417.47 1129.79L1417.75 1129.88C1407.91 1123.75 1397.7 1117.81 1388.23 1111.59C1385.07 1109.83 1382.19 1107.69 1379.22 1105.84L1359.91 1093.3C1346.55 1084.02 1333.46 1074.09 1320.18 1064.43C1317.21 1061.74 1314.33 1059.51 1311.46 1057.1C1172.3 948.208 1062.57 799.398 1010.49 630.908C955.63 455.733 967.699 259.301 1062.48 99.9077L945.976 264.035C802.922 468.359 810.998 741.471 922.397 957.584C942.727 997.502 963.336 1031.2 986.079 1063.32C1007.25 1093.58 1030.64 1129.04 1058.86 1153.37C1068.89 1164.79 1079.65 1175.65 1090.89 1186.69V1186.69Z" fill="#1266A9"/>
<path d="M418.318 1624.12L417.947 1623.56L417.297 1622.73L418.318 1624.12ZM804.314 1555.05L805.242 1555.7L805.428 1555.98L804.314 1555.05Z" fill="black"/>
<path d="M1460.82 86.3542C1376.44 209.543 1368.36 362.53 1426.48 498.343C1488.21 642.604 1614.37 755.86 1761.41 809.517C1767.45 811.838 1773.3 813.787 1779.52 816.015L1787.69 818.521C1796.23 821.214 1804.86 824.37 1813.68 826.319C2220.38 904.391 2330.47 618.561 2360.09 576.508C2263.26 714.828 2100.9 748.062 1901.68 699.882C1884.36 695.658 1867.31 690.388 1850.63 684.1L1853.69 685.122C1832.93 677.937 1812.59 669.568 1792.79 660.057L1796.32 661.635C1758.26 643.069 1725.58 623.017 1695.22 599.995C1517.17 465.388 1407.07 209.078 1523.3 0.298828L1460.82 86.3542Z" fill="#1266A9"/>
</g>
<defs>
<clipPath id="clip0_104_123">
<rect width="2500" height="2282" fill="white" transform="translate(0.801758 0.298828)"/>
</clipPath>
</defs>
</svg>
