<svg width="323" height="383" viewBox="0 0 323 383" fill="none" xmlns="http://www.w3.org/2000/svg">
<path d="M94.3991 155.999C88.3991 169.999 46.3991 213.999 50.3991 257.999C66.3991 441.999 122.399 317.999 206.399 363.999C206.399 363.999 356.399 279.999 236.399 143.999C202.399 95.9987 232.399 57.9987 210.399 25.9987C188.399 -6.00126 150.399 -8.00126 122.399 21.9987C94.3991 51.9987 134.399 95.9987 94.3991 155.999Z" fill="#333333"/>
<path d="M242.399 247.999C242.399 247.999 260.399 211.999 226.399 185.999C258.399 219.999 238.399 249.999 238.399 249.999H232.399C230.399 179.999 212.399 217.999 186.399 93.9988C216.399 59.9988 158.399 29.9988 158.399 85.9988H140.399C142.399 37.9988 100.399 61.9988 124.399 95.9988C122.399 169.999 78.3992 199.999 78.3992 251.999C64.3992 215.999 90.3992 187.999 90.3992 187.999C90.3992 187.999 54.3992 217.999 76.3992 261.999C98.3992 305.999 138.399 295.999 110.399 315.999C154.399 345.999 222.399 325.999 220.399 261.999C222.399 245.999 264.399 251.999 268.399 255.999C272.399 259.999 262.399 247.999 242.399 247.999ZM130.399 91.9988C116.399 87.9988 120.399 69.9988 126.399 69.9988C132.399 69.9988 142.399 83.9988 130.399 91.9988ZM168.399 93.9988C158.399 79.9988 166.399 65.9988 176.399 67.9988C186.399 69.9988 186.399 93.9988 168.399 93.9988Z" fill="#EEEEEE"/>
<path d="M76.3992 267.999L118.399 327.999C140.399 341.999 128.399 397.999 68.3992 369.999C34.3992 359.999 6.39917 361.999 2.39917 343.999C-1.60083 325.999 10.3992 323.999 8.39917 315.999C0.399168 271.999 36.3992 293.999 46.3992 271.999C56.3992 249.999 56.3992 239.999 76.3992 267.999ZM300.399 295.999C292.399 283.999 300.399 261.999 272.399 263.999C260.399 287.999 226.399 311.999 224.399 263.999C204.399 263.999 218.399 311.999 210.399 333.999C192.399 387.999 244.399 391.999 266.399 365.999L318.399 329.999C322.399 323.999 328.399 317.999 300.399 295.999ZM116.399 111.999C110.399 99.9988 138.399 83.9988 148.399 83.9988C158.399 83.9988 172.399 91.9988 186.399 95.9988C200.399 99.9988 194.399 113.999 190.399 115.999C186.399 117.999 164.399 135.999 148.399 135.999C132.399 135.999 128.399 119.999 116.399 111.999Z" fill="#FFCC22" stroke="#333333" stroke-width="2"/>
<path d="M116.399 109.999C132.399 121.999 150.399 131.999 186.399 103.999Z" fill="#FFCC22"/>
<path d="M116.399 109.999C132.399 121.999 150.399 131.999 186.399 103.999" stroke="#333333" stroke-width="2"/>
<path d="M138.399 97.9988C134.399 97.9988 140.399 93.9988 142.399 95.9988ZM156.399 97.9988C158.399 95.9988 154.399 93.9988 150.399 95.9988Z" fill="#333333"/>
</svg>
