<svg width="33" height="33" viewBox="0 0 33 33" fill="none" xmlns="http://www.w3.org/2000/svg">
<path d="M17.0153 30.0213L16.2643 29.7723C16.2643 29.7723 16.3643 25.9723 14.9893 25.7053C14.0893 24.6573 15.1223 -19.0357 18.4123 25.5563C17.788 25.8729 17.3104 26.4186 17.0793 27.0793C16.9554 28.055 16.9339 29.0411 17.0153 30.0213V30.0213Z" fill="url(#paint0_linear_104_113)"/>
<path d="M17.4213 26.3502C19.4208 24.845 20.9522 22.8032 21.8373 20.4621C22.7224 18.121 22.9249 15.5769 22.4213 13.1252C20.9513 6.64024 17.4703 4.50824 17.0953 3.69424C16.7717 3.18737 16.4956 2.65177 16.2703 2.09424L16.5473 20.1632C16.5473 20.1632 15.9733 25.6852 17.4213 26.3502Z" fill="url(#paint1_linear_104_113)"/>
<path d="M15.8824 26.5902C15.8824 26.5902 9.76137 22.4212 10.1154 15.0462C10.1484 12.8229 10.6582 10.6325 11.6103 8.62306C12.5624 6.61361 13.9346 4.83189 15.6344 3.39824C15.833 3.22949 15.9908 3.01792 16.0959 2.77942C16.2011 2.54093 16.2508 2.28171 16.2414 2.02124C16.6224 2.84124 16.5604 14.2642 16.6004 15.6002C16.7554 20.7972 16.3114 25.6092 15.8824 26.5902Z" fill="url(#paint2_linear_104_113)"/>
<defs>
<linearGradient id="paint0_linear_104_113" x1="11.9669" y1="16.2736" x2="20.5986" y2="19.2027" gradientUnits="userSpaceOnUse">
<stop offset="0.231" stop-color="#999875"/>
<stop offset="0.563" stop-color="#9B9977"/>
<stop offset="0.683" stop-color="#A09F7E"/>
<stop offset="0.768" stop-color="#A9A889"/>
<stop offset="0.837" stop-color="#B7B69A"/>
<stop offset="0.896" stop-color="#C9C7B0"/>
<stop offset="0.948" stop-color="#DEDDCB"/>
<stop offset="0.994" stop-color="#F8F6EB"/>
<stop offset="1" stop-color="#FBF9EF"/>
</linearGradient>
<linearGradient id="paint1_linear_104_113" x1="15.1322" y1="1.96512" x2="18.9482" y2="25.7941" gradientUnits="userSpaceOnUse">
<stop stop-color="#48A547"/>
<stop offset="1" stop-color="#3F9143"/>
</linearGradient>
<linearGradient id="paint2_linear_104_113" x1="9.58884" y1="15.7763" x2="19.8295" y2="12.3467" gradientUnits="userSpaceOnUse">
<stop stop-color="#41A247"/>
<stop offset="0.352" stop-color="#4BA74B"/>
<stop offset="0.956" stop-color="#67B554"/>
<stop offset="1" stop-color="#69B655"/>
</linearGradient>
</defs>
</svg>
