<svg width="2501" height="2384" viewBox="0 0 2501 2384" fill="none" xmlns="http://www.w3.org/2000/svg">
<g clip-path="url(#clip0_104_18)">
<path d="M1732.73 1658.35C1824.98 1648.8 1894.97 1569.27 1891.79 1473.82C1888.62 1378.38 1809.08 1302.03 1713.64 1302.03H1707.28C1608.65 1305.21 1532.3 1387.92 1535.48 1486.55C1538.67 1534.27 1557.75 1575.63 1586.38 1604.26C1478.22 1817.43 1312.79 1973.32 1064.64 2103.75C896.028 2192.84 721.058 2224.65 546.087 2202.39C402.923 2183.3 291.575 2119.67 221.575 2014.67C119.779 1858.78 110.238 1690.16 196.136 1521.55C256.585 1400.65 352.015 1311.57 412.464 1267.03C399.739 1225.67 380.648 1155.68 371.107 1104.78C-90.1922 1438.83 -42.4676 1890.6 97.5129 2103.75C202.493 2262.84 415.648 2361.46 651.068 2361.46C714.691 2361.46 778.314 2355.09 841.946 2339.19C1249.16 2259.65 1557.76 2017.86 1732.73 1658.35V1658.35ZM2292.65 1263.85C2050.86 980.698 1694.55 824.81 1287.34 824.81H1236.44C1207.81 767.544 1147.36 729.36 1080.55 729.36H1074.18C975.57 732.544 899.222 815.259 902.396 913.892C905.579 1009.33 985.111 1085.69 1080.55 1085.69H1086.91C1156.9 1082.5 1217.35 1037.96 1242.8 977.515H1300.06C1541.85 977.515 1770.9 1047.5 1977.7 1184.31C2136.76 1289.3 2251.29 1426.11 2314.92 1591.54C2369 1725.16 2365.81 1855.6 2308.55 1966.96C2219.48 2135.57 2069.95 2227.84 1872.71 2227.84C1745.45 2227.84 1624.56 2189.65 1560.93 2161.02C1525.94 2192.84 1462.31 2243.74 1417.77 2275.56C1554.57 2339.18 1694.55 2374.18 1828.17 2374.18C2133.58 2374.18 2359.46 2205.56 2445.35 2036.95C2537.61 1852.42 2531.24 1534.27 2292.65 1263.85V1263.85ZM676.517 1712.43C679.7 1807.88 759.232 1884.22 854.671 1884.22H861.038C959.661 1881.05 1036.01 1798.33 1032.83 1699.7C1029.65 1604.25 950.111 1527.91 854.671 1527.91H848.314C841.946 1527.91 832.396 1527.91 826.048 1531.08C695.609 1314.74 641.527 1079.32 660.618 824.8C673.333 633.911 736.966 468.472 848.314 331.665C940.57 213.95 1118.72 156.685 1239.62 153.511C1576.84 147.144 1719.99 567.095 1729.54 735.718C1770.9 745.259 1840.89 767.534 1888.62 783.442C1850.43 268.052 1532.3 0.805626 1226.9 0.805626C940.57 0.805626 676.517 207.603 571.527 513.022C425.189 920.249 520.628 1311.57 698.782 1620.17C682.884 1642.44 673.333 1677.44 676.517 1712.44V1712.43Z" fill="#764ABC"/>
</g>
<defs>
<clipPath id="clip0_104_18">
<rect width="2500" height="2383" fill="white" transform="translate(0.491529 0.711876)"/>
</clipPath>
</defs>
</svg>
