<svg width="257" height="270" viewBox="0 0 257 270" fill="none" xmlns="http://www.w3.org/2000/svg">
<g clip-path="url(#clip0_104_30)">
<path d="M234.815 0.745237C235.136 0.724599 235.457 0.794557 235.74 0.947152C236.024 1.09975 236.259 1.32885 236.418 1.6084C236.578 1.88795 236.656 2.20672 236.644 2.52844C236.631 2.85016 236.529 3.16192 236.348 3.42824L170.05 93.4852C169.809 93.7563 169.514 93.9733 169.184 94.122C168.854 94.2706 168.496 94.3474 168.134 94.3474C167.771 94.3474 167.413 94.2706 167.083 94.122C166.753 93.9733 166.458 93.7563 166.218 93.4852L142.841 67.4262C142.559 67.1337 142.215 66.9082 141.834 66.7665C141.453 66.6247 141.046 66.5702 140.641 66.6071C140.236 66.6439 139.845 66.7712 139.496 66.9794C139.148 67.1877 138.85 67.4716 138.626 67.8102L124.446 85.8212C124.225 86.3191 124.145 86.8674 124.212 87.4075C124.28 87.9476 124.493 88.4591 124.83 88.8872L166.984 132.574C167.224 132.845 167.519 133.063 167.849 133.211C168.18 133.36 168.538 133.437 168.9 133.437C169.262 133.437 169.621 133.36 169.951 133.211C170.281 133.063 170.576 132.845 170.817 132.574L253.592 39.4522C253.83 39.1951 254.14 39.0148 254.482 38.9342C254.824 38.8536 255.181 38.8763 255.51 38.9996C255.839 39.1229 256.123 39.341 256.328 39.6264C256.532 39.9118 256.647 40.2514 256.658 40.6022V267.087C256.673 267.343 256.634 267.599 256.544 267.839C256.453 268.078 256.312 268.296 256.131 268.477C255.95 268.658 255.732 268.799 255.492 268.89C255.253 268.98 254.996 269.019 254.741 269.003H2.58157C2.3258 269.019 2.06961 268.98 1.82994 268.89C1.59028 268.799 1.37262 268.658 1.19137 268.477C1.01013 268.296 0.869438 268.078 0.77862 267.839C0.687801 267.599 0.648925 267.343 0.664568 267.087V2.66224C0.648778 2.40638 0.687543 2.1501 0.778296 1.91036C0.869049 1.67062 1.00972 1.45291 1.19098 1.27165C1.37224 1.09039 1.58995 0.949718 1.82969 0.858965C2.06943 0.768212 2.32571 0.729446 2.58157 0.745237H234.815ZM169.667 153.652C164.021 153.553 158.413 154.598 153.182 156.725C147.951 158.851 143.205 162.015 139.23 166.026C135.255 170.037 132.133 174.811 130.054 180.061C127.974 185.311 126.979 190.927 127.129 196.572C127.129 223.015 146.29 239.877 171.199 239.877C182.73 240.164 194.038 236.664 203.391 229.913C203.81 229.532 204.08 229.014 204.15 228.451C204.22 227.889 204.087 227.32 203.774 226.847L196.876 216.5C196.501 216.071 195.981 215.794 195.416 215.723C194.85 215.653 194.278 215.793 193.81 216.117C187.814 220.212 180.758 222.475 173.5 222.632C160.086 222.632 151.655 214.201 150.123 204.237C150.136 204.039 150.221 203.851 150.362 203.711C150.503 203.57 150.69 203.485 150.889 203.471H208.756C209.352 203.431 209.914 203.175 210.337 202.753C210.759 202.33 211.014 201.768 211.055 201.171V198.871C211.055 172.046 194.193 153.651 169.667 153.651V153.652ZM112.567 139.089C100.927 129.575 86.1982 124.665 71.1776 125.293C45.1186 125.293 29.0236 140.622 29.0236 159.017C29.0236 200.788 92.6386 187.375 92.6386 206.92C92.6386 213.051 86.5066 219.183 73.4776 219.183C61.1028 219.285 49.1638 214.619 40.1376 206.153C39.8712 205.904 39.5547 205.715 39.2092 205.598C38.8636 205.481 38.4971 205.439 38.1342 205.475C37.7713 205.512 37.4203 205.625 37.1047 205.808C36.7892 205.991 36.5164 206.239 36.3046 206.536L26.3416 220.332C26.0287 220.805 25.8954 221.374 25.9658 221.936C26.0363 222.499 26.3058 223.017 26.7256 223.398C37.0726 232.978 51.6356 239.494 71.9456 239.494C101.837 239.494 116.4 224.164 117.166 204.237C117.166 162.849 53.5506 174.729 53.5506 157.101C53.5506 150.586 59.2996 145.987 69.2626 145.987C80.2463 145.837 90.9435 149.493 99.5376 156.334C99.7877 156.539 100.076 156.692 100.386 156.784C100.696 156.875 101.021 156.904 101.343 156.869C101.664 156.833 101.975 156.733 102.257 156.576C102.54 156.418 102.788 156.206 102.987 155.951L112.951 142.538C113.155 142.288 113.308 142 113.4 141.69C113.492 141.38 113.521 141.054 113.485 140.733C113.449 140.412 113.35 140.101 113.192 139.819C113.035 139.536 112.822 139.288 112.568 139.089H112.567ZM170.05 170.513C180.473 169.93 189.472 177.74 190.361 188.142C190.347 188.341 190.262 188.528 190.121 188.669C189.98 188.81 189.793 188.895 189.595 188.908H150.505C150.306 188.895 150.119 188.81 149.978 188.669C149.837 188.528 149.752 188.341 149.739 188.142C151.021 177.944 159.774 170.347 170.05 170.513V170.513Z" fill="#2CB134"/>
</g>
<defs>
<clipPath id="clip0_104_30">
<rect width="256" height="268.263" fill="white" transform="translate(0.661621 0.742188)"/>
</clipPath>
</defs>
</svg>
