<svg width="65" height="65" viewBox="0 0 65 65" fill="none" xmlns="http://www.w3.org/2000/svg">
<g clip-path="url(#clip0_104_119)">
<path d="M49.0272 3.7495H8.86981C6.17507 3.7495 3.98804 5.95606 3.98804 8.63127V52.9187C3.98804 55.6134 6.1946 57.8005 8.86981 57.8005H35.329C35.0361 44.6392 39.5273 19.0978 49.037 3.71045L49.0272 3.7495Z" fill="#0F80CC"/>
<path d="M47.5628 5.18457H8.86986C6.95621 5.18457 5.40381 6.74674 5.40381 8.65063V49.7063C14.1715 46.3379 27.323 43.4381 36.4226 43.5748C39.2279 30.5308 42.9538 17.7019 47.5725 5.18457H47.5628Z" fill="url(#paint0_linear_104_119)"/>
<path d="M58.4002 2.3045C55.6468 -0.13638 52.3175 0.839973 49.0272 3.74951L47.5626 5.17498C41.9388 11.1307 36.8227 22.1831 35.1044 30.6285C35.7166 31.9661 36.2004 33.3588 36.5494 34.7878L36.7642 35.7642L36.979 36.76C36.979 36.76 36.9301 36.5648 36.7251 35.979L36.5884 35.5884C36.561 35.5161 36.5317 35.4444 36.5005 35.3736C36.1295 34.5242 35.1336 32.7179 34.6748 31.9368C34.3195 32.975 33.9843 34.0199 33.6691 35.0709C34.9579 37.4337 35.739 41.4758 35.739 41.4758C35.739 41.4758 35.6706 41.2122 35.3484 40.3042C35.0555 39.4938 33.6301 36.9846 33.2981 36.3988C32.7123 38.5468 32.4877 39.9918 32.6928 40.3433C33.0833 41.0267 33.4738 42.296 33.8156 43.5066C34.3428 45.6536 34.7729 47.8234 35.1044 50.0092L35.1532 50.6145C35.052 53.0561 35.1009 55.5016 35.2996 57.9372C35.5535 60.9931 36.0319 63.6195 36.6372 65.0255L37.0473 64.8009C36.1686 62.0281 35.7976 58.4058 35.9538 54.2172C36.1979 47.8221 37.6624 40.1089 40.3864 32.0735C45.0046 19.8398 51.3704 10.0958 57.209 5.44836C51.8879 10.252 44.6921 25.7956 42.5442 31.5463C40.1326 37.9902 38.424 44.0436 37.389 49.8334C39.166 44.4049 44.9069 42.0616 44.9069 42.0616C44.9069 42.0616 47.7384 38.5858 51.0189 33.6162L44.7214 35.2955L42.6906 36.1937C42.6906 36.1937 47.8653 33.0401 52.3272 31.6049C58.449 21.9683 65.1175 8.27003 58.4002 2.29474" fill="#003B57"/>
</g>
<defs>
<linearGradient id="paint0_linear_104_119" x1="29.7248" y1="6.09258" x2="29.7248" y2="47.2361" gradientUnits="userSpaceOnUse">
<stop stop-color="#97D9F6"/>
<stop offset="0.92024" stop-color="#0F80CC"/>
<stop offset="1" stop-color="#0F80CC"/>
</linearGradient>
<clipPath id="clip0_104_119">
<rect width="64" height="64" fill="white" transform="translate(0.595215 0.917969)"/>
</clipPath>
</defs>
</svg>
