<svg width="747" height="205" viewBox="0 0 747 205" fill="none" xmlns="http://www.w3.org/2000/svg">
<path d="M191.447 0L235 170H191.447L147 0H191.447Z" fill="url(#paint0_linear_102_16)"/>
<path d="M124 97.1325L89.6925 4L71 74.7117L104.966 170L124 97.1325Z" fill="url(#paint1_linear_102_16)"/>
<g filter="url(#filter0_d_102_16)">
<path d="M148.553 0L105 170H148.553L193 0H148.553Z" fill="url(#paint2_linear_102_16)"/>
</g>
<g filter="url(#filter1_d_102_16)">
<path d="M47.2234 4L4 172H47.2234L90 4H47.2234Z" fill="url(#paint3_linear_102_16)"/>
</g>
<path d="M255.752 152.225C261.245 152.225 263.992 154.992 263.992 160.525V164.371C263.992 166.934 263.28 168.948 261.855 170.413C260.472 171.878 258.438 172.61 255.752 172.61H248.245C245.559 172.61 243.504 171.878 242.08 170.413C240.697 168.948 240.005 166.934 240.005 164.371V160.525C240.005 157.84 240.717 155.785 242.141 154.361C243.565 152.937 245.6 152.225 248.245 152.225H255.752ZM277.786 166.263V90.2739C277.786 88.687 278.335 87.3239 279.434 86.1846C280.532 85.0452 281.875 84.4756 283.462 84.4756H301.406C302.83 84.4756 304.336 85.0452 305.923 86.1846C307.51 87.3239 308.812 88.687 309.829 90.2739L346.694 146.976V90.1519C346.694 88.5649 347.244 87.2222 348.342 86.1235C349.482 85.0249 350.845 84.4756 352.432 84.4756H362.93C364.517 84.4756 365.859 85.0249 366.958 86.1235C368.097 87.2222 368.667 88.6056 368.667 90.2739V166.263C368.667 167.85 368.097 169.213 366.958 170.352C365.859 171.451 364.517 172 362.93 172H342.666C341.079 172 339.451 171.451 337.783 170.352C336.115 169.213 334.792 167.85 333.816 166.263L300.063 113.895V166.263C300.063 167.85 299.494 169.213 298.354 170.352C297.256 171.451 295.913 172 294.326 172H283.584C281.997 172 280.634 171.451 279.495 170.352C278.355 169.213 277.786 167.85 277.786 166.263ZM389.236 167.605C383.865 163.862 381.179 158.572 381.179 151.736C381.179 144.9 383.865 139.651 389.236 135.989C394.648 132.327 401.606 130.496 410.11 130.496H430.312C430.312 125.735 429.316 122.419 427.322 120.547C425.328 118.676 421.829 117.74 416.824 117.74C411.86 117.74 408.36 118.981 406.326 121.463C404.332 123.904 401.87 125.125 398.94 125.125H389.846C388.748 125.125 387.832 124.779 387.1 124.087C386.408 123.355 386.062 122.46 386.062 121.402C386.062 109.724 397.15 103.885 419.326 103.885C429.01 103.885 436.782 106.062 442.642 110.416C448.501 114.729 451.431 121.422 451.431 130.496V168.277C451.431 169.375 451.085 170.271 450.393 170.962C449.701 171.654 448.806 172 447.708 172H435.928C434.829 172 433.934 171.654 433.242 170.962C432.55 170.23 432.205 169.335 432.205 168.277V166.385C425.776 170.983 418.35 173.261 409.927 173.221C401.545 173.221 394.648 171.349 389.236 167.605ZM411.575 144.351C408.726 144.351 406.468 145.043 404.8 146.426C403.172 147.81 402.358 149.6 402.358 151.797C402.358 153.995 403.213 155.805 404.922 157.229C406.631 158.654 409.052 159.366 412.185 159.366C418.451 159.366 424.494 157.535 430.312 153.873V144.351H411.575ZM466.506 88.2598C466.506 87.1611 466.852 86.266 467.544 85.5742C468.276 84.8418 469.172 84.4756 470.229 84.4756H483.901C484.959 84.4756 485.834 84.8418 486.526 85.5742C487.258 86.266 487.625 87.1611 487.625 88.2598V106.998C494.216 104.922 500.096 103.885 505.264 103.885C515.273 103.885 523.228 106.875 529.128 112.857C535.028 118.798 537.979 127.383 537.979 138.614C537.979 161.685 525.059 173.221 499.221 173.221C493.321 173.221 487.197 172.57 480.85 171.268C474.543 169.925 469.762 168.297 466.506 166.385V88.2598ZM487.625 121.097V157.107C491.124 158.043 495.579 158.511 500.991 158.511C506.403 158.511 510.289 156.945 512.649 153.812C515.05 150.678 516.25 145.612 516.25 138.614C516.25 131.615 515.07 126.549 512.71 123.416C510.391 120.242 506.444 118.655 500.869 118.655C497.288 118.655 492.874 119.469 487.625 121.097ZM554.885 164.31C548.619 158.369 545.486 149.824 545.486 138.675C545.486 127.485 548.639 118.899 554.946 112.918C561.253 106.896 570.002 103.885 581.191 103.885C592.381 103.885 601.109 106.814 607.375 112.674C613.642 118.493 616.775 126.854 616.775 137.759V141.238C616.775 142.337 616.409 143.252 615.676 143.985C614.985 144.677 614.089 145.022 612.991 145.022H567.031C567.438 150.027 568.862 153.669 571.304 155.948C573.786 158.226 577.733 159.366 583.145 159.366C588.556 159.366 592.259 158.145 594.253 155.704C596.247 153.262 598.708 152.021 601.638 151.98H610.732C611.831 151.98 612.726 152.347 613.418 153.079C614.15 153.771 614.517 154.666 614.517 155.765C614.517 167.443 603.388 173.261 581.13 173.221C569.9 173.221 561.152 170.25 554.885 164.31ZM566.909 132.144H595.291C594.884 122.541 590.164 117.74 581.13 117.74C572.138 117.74 567.397 122.541 566.909 132.144ZM633.621 164.31C627.354 158.369 624.221 149.824 624.221 138.675C624.221 127.485 627.375 118.899 633.682 112.918C639.989 106.896 648.737 103.885 659.927 103.885C671.117 103.885 679.845 106.814 686.111 112.674C692.377 118.493 695.51 126.854 695.51 137.759V141.238C695.51 142.337 695.144 143.252 694.412 143.985C693.72 144.677 692.825 145.022 691.726 145.022H645.767C646.174 150.027 647.598 153.669 650.039 155.948C652.521 158.226 656.468 159.366 661.88 159.366C667.292 159.366 670.994 158.145 672.988 155.704C674.982 153.262 677.444 152.021 680.374 151.98H689.468C690.566 151.98 691.462 152.347 692.153 153.079C692.886 153.771 693.252 154.666 693.252 155.765C693.252 167.443 682.123 173.261 659.866 173.221C648.635 173.221 639.887 170.25 633.621 164.31ZM645.645 132.144H674.026C673.619 122.541 668.899 117.74 659.866 117.74C650.873 117.74 646.133 122.541 645.645 132.144ZM706.741 168.277V88.2598C706.741 87.1611 707.087 86.266 707.778 85.5742C708.511 84.8418 709.406 84.4756 710.464 84.4756H724.136C725.194 84.4756 726.069 84.8418 726.76 85.5742C727.493 86.266 727.859 87.1611 727.859 88.2598V168.277C727.859 169.335 727.493 170.23 726.76 170.962C726.069 171.654 725.194 172 724.136 172H710.464C709.406 172 708.511 171.654 707.778 170.962C707.087 170.23 706.741 169.335 706.741 168.277Z" fill="black"/>
<defs>
<filter id="filter0_d_102_16" x="101" y="0" width="96" height="178" filterUnits="userSpaceOnUse" color-interpolation-filters="sRGB">
<feFlood flood-opacity="0" result="BackgroundImageFix"/>
<feColorMatrix in="SourceAlpha" type="matrix" values="0 0 0 0 0 0 0 0 0 0 0 0 0 0 0 0 0 0 127 0" result="hardAlpha"/>
<feOffset dy="4"/>
<feGaussianBlur stdDeviation="2"/>
<feComposite in2="hardAlpha" operator="out"/>
<feColorMatrix type="matrix" values="0 0 0 0 0 0 0 0 0 0 0 0 0 0 0 0 0 0 0.25 0"/>
<feBlend mode="normal" in2="BackgroundImageFix" result="effect1_dropShadow_102_16"/>
<feBlend mode="normal" in="SourceGraphic" in2="effect1_dropShadow_102_16" result="shape"/>
</filter>
<filter id="filter1_d_102_16" x="0" y="4" width="94" height="176" filterUnits="userSpaceOnUse" color-interpolation-filters="sRGB">
<feFlood flood-opacity="0" result="BackgroundImageFix"/>
<feColorMatrix in="SourceAlpha" type="matrix" values="0 0 0 0 0 0 0 0 0 0 0 0 0 0 0 0 0 0 127 0" result="hardAlpha"/>
<feOffset dy="4"/>
<feGaussianBlur stdDeviation="2"/>
<feComposite in2="hardAlpha" operator="out"/>
<feColorMatrix type="matrix" values="0 0 0 0 0 0 0 0 0 0 0 0 0 0 0 0 0 0 0.25 0"/>
<feBlend mode="normal" in2="BackgroundImageFix" result="effect1_dropShadow_102_16"/>
<feBlend mode="normal" in="SourceGraphic" in2="effect1_dropShadow_102_16" result="shape"/>
</filter>
<linearGradient id="paint0_linear_102_16" x1="158.478" y1="-57.3034" x2="118.207" y2="215.812" gradientUnits="userSpaceOnUse">
<stop offset="0.210227" stop-color="#FCB7B7"/>
<stop offset="0.861269" stop-color="#EE2DFF"/>
</linearGradient>
<linearGradient id="paint1_linear_102_16" x1="117.087" y1="-51.9551" x2="178.708" y2="205.801" gradientUnits="userSpaceOnUse">
<stop stop-color="#FFCECE"/>
<stop offset="1" stop-color="#EE2DFF"/>
</linearGradient>
<linearGradient id="paint2_linear_102_16" x1="98.1376" y1="-5.78534" x2="225.434" y2="144.248" gradientUnits="userSpaceOnUse">
<stop stop-color="white"/>
<stop offset="0.684185" stop-color="#EF3BFF"/>
</linearGradient>
<linearGradient id="paint3_linear_102_16" x1="-2.70642" y1="-1.71728" x2="123.314" y2="145.164" gradientUnits="userSpaceOnUse">
<stop stop-color="white"/>
<stop offset="0.684185" stop-color="#EF3BFF"/>
</linearGradient>
</defs>
</svg>
